<svg width="708" height="209" viewBox="0 0 708 209" fill="none" xmlns="http://www.w3.org/2000/svg">
<path d="M649.274 208.072C612.41 208.072 587.066 181.448 587.066 142.536C587.066 103.368 611.898 76.2319 648.25 76.2319C683.834 76.2319 707.13 100.808 707.13 137.928V146.888L610.362 147.144C612.154 173.512 625.978 188.104 649.786 188.104C668.474 188.104 680.762 180.424 684.858 166.088H707.386C701.242 192.968 680.25 208.072 649.274 208.072ZM648.25 96.4559C627.258 96.4559 613.946 109 610.874 131.016H683.066C683.066 110.28 669.498 96.4559 648.25 96.4559Z" fill="url(#paint0_linear_4002_12)"/>
<path d="M579.748 78.7919V100.808H568.996C546.212 100.808 532.132 114.632 532.132 138.696V205H508.068V80.0719H530.596L532.132 99.0159C537.252 85.9599 549.796 77.2559 566.948 77.2559C571.3 77.2559 574.884 77.7679 579.748 78.7919Z" fill="url(#paint1_linear_4002_12)"/>
<path d="M410.486 208.072C383.606 208.072 367.734 192.968 367.734 170.184C367.734 147.144 384.886 132.808 414.326 130.504L453.75 127.432V123.848C453.75 102.856 441.206 95.4319 424.31 95.4319C404.086 95.4319 392.566 104.392 392.566 119.496H371.574C371.574 93.3839 393.078 76.2319 425.334 76.2319C456.31 76.2319 477.302 92.6159 477.302 126.408V205H456.822L454.262 184.776C447.862 199.112 430.71 208.072 410.486 208.072ZM417.398 189.384C440.182 189.384 454.006 174.536 454.006 150.984V144.328L422.006 146.888C400.758 148.936 392.054 157.128 392.054 169.416C392.054 182.728 401.782 189.384 417.398 189.384Z" fill="url(#paint2_linear_4002_12)"/>
<path d="M317.78 166C317.28 175.083 318.488 181.125 321.405 184.125C324.322 187.042 328.488 188.5 333.905 188.5C339.405 188.5 347.322 187.083 357.655 184.25L361.655 202.5C350.655 205.5 341.863 207.083 335.28 207.25C328.78 207.5 323.197 207.042 318.53 205.875C313.863 204.792 309.863 202.75 306.53 199.75C299.363 193.333 295.947 182.542 296.28 167.375L296.53 2.5L318.03 0.75L317.78 166Z" fill="url(#paint3_linear_4002_12)"/>
<path d="M134.806 142.28C134.806 103.624 162.454 76.488 200.086 76.488C237.462 76.488 265.11 103.624 265.11 142.28C265.11 180.936 237.462 208.072 200.086 208.072C162.454 208.072 134.806 180.936 134.806 142.28ZM159.126 142.28C159.126 168.392 175.766 186.568 200.086 186.568C224.15 186.568 241.046 168.392 241.046 142.28C241.046 116.168 224.15 97.9921 200.086 97.9921C175.766 97.9921 159.126 116.168 159.126 142.28Z" fill="url(#paint4_linear_4002_12)"/>
<path d="M0.616211 142.536C0.616211 103.368 25.4482 76.2319 62.0562 76.2319C93.5442 76.2319 115.56 94.1519 119.912 122.056H95.8482C91.7522 106.184 78.9522 97.7359 62.8242 97.7359C40.0402 97.7359 24.4242 115.144 24.4242 142.28C24.4242 169.16 39.0162 186.568 61.8002 186.568C78.9522 186.568 91.7522 177.608 96.1042 162.76H120.168C115.304 189.896 92.0082 208.072 61.8002 208.072C24.9362 208.072 0.616211 181.96 0.616211 142.536Z" fill="url(#paint5_linear_4002_12)"/>
<defs>
<linearGradient id="paint0_linear_4002_12" x1="248.5" y1="82.5" x2="354" y2="109" gradientUnits="userSpaceOnUse">
<stop/>
<stop offset="1" stop-color="#5B4EE9"/>
</linearGradient>
<linearGradient id="paint1_linear_4002_12" x1="248.5" y1="82.4999" x2="354" y2="109" gradientUnits="userSpaceOnUse">
<stop/>
<stop offset="1" stop-color="#5B4EE9"/>
</linearGradient>
<linearGradient id="paint2_linear_4002_12" x1="248.5" y1="82.5" x2="354" y2="109" gradientUnits="userSpaceOnUse">
<stop/>
<stop offset="1" stop-color="#5B4EE9"/>
</linearGradient>
<linearGradient id="paint3_linear_4002_12" x1="248.5" y1="82.5" x2="354" y2="109" gradientUnits="userSpaceOnUse">
<stop/>
<stop offset="1" stop-color="#5B4EE9"/>
</linearGradient>
<linearGradient id="paint4_linear_4002_12" x1="248.5" y1="82.5" x2="354" y2="109" gradientUnits="userSpaceOnUse">
<stop/>
<stop offset="1" stop-color="#5B4EE9"/>
</linearGradient>
<linearGradient id="paint5_linear_4002_12" x1="248.5" y1="82.5" x2="354" y2="109" gradientUnits="userSpaceOnUse">
<stop/>
<stop offset="1" stop-color="#5B4EE9"/>
</linearGradient>
</defs>
</svg>
